<?xml version="1.0" encoding="UTF-8" standalone="no"?>
<svg
   xmlns:dc="http://purl.org/dc/elements/1.1/"
   xmlns:cc="http://creativecommons.org/ns#"
   xmlns:rdf="http://www.w3.org/1999/02/22-rdf-syntax-ns#"
   xmlns:svg="http://www.w3.org/2000/svg"
   xmlns="http://www.w3.org/2000/svg"
   viewBox="0 0 537.77332 146.96001"
   height="146.96001"
   width="537.77332"
   xml:space="preserve"
   id="svg2"
   version="1.1"><metadata
     id="metadata8"><rdf:RDF><cc:Work
         rdf:about=""><dc:format>image/svg+xml</dc:format><dc:type
           rdf:resource="http://purl.org/dc/dcmitype/StillImage" /></cc:Work></rdf:RDF></metadata><defs
     id="defs6" /><g
     transform="matrix(1.3333333,0,0,-1.3333333,0,146.96)"
     id="g10"><g
       transform="scale(0.1)"
       id="g12"><path
         id="path14"
         style="fill:#ffffff;fill-opacity:1;fill-rule:nonzero;stroke:none"
         d="M 854.742,474.48 H 4033.04 V 429.344 H 854.742 v 45.136" /><path
         id="path16"
         style="fill:#ffffff;fill-opacity:1;fill-rule:nonzero;stroke:none"
         d="M 855.063,1102.18 H 4033.33 v -45.16 H 855.063 v 45.16" /><path
         id="path18"
         style="fill:#ffffff;fill-opacity:1;fill-rule:nonzero;stroke:none"
         d="m 642.105,1102.17 9.661,-12.89 c 4.75,-6.38 9.441,-12.95 13.941,-19.41 l 14.688,-21.15 v 53.45 h -38.29" /><path
         id="path20"
         style="fill:#ffffff;fill-opacity:1;fill-rule:nonzero;stroke:none"
         d="m 240.605,435.008 20.043,-3.176 7.59,39.672 -1.984,0.383 0.023,0.113 -24.179,4.027 C 165.684,491.129 89.0781,518.129 14.2383,556.277 L 0.464844,563.539 V 521.164 L 9.02344,516.527 C 84.6602,477.438 162.563,449.996 240.605,435.008" /><path
         id="path22"
         style="fill:#ffffff;fill-opacity:1;fill-rule:nonzero;stroke:none"
         d="m 417.402,464.555 7.317,-39.532 31.469,3.782 c 88.007,13.914 161.328,49.883 211.902,104.074 l 12.281,14.215 v 74.039 C 674.465,608.297 667.426,596.039 659.309,584.5 610.531,515.07 526.941,473.609 417.402,464.555" /><path
         id="path24"
         style="fill:#ffffff;fill-opacity:1;fill-rule:nonzero;stroke:none"
         d="m 224.055,346.313 19.793,-3.231 7.148,37.738 -14.683,2.262 C 167.629,395.258 98.0625,416.016 29.4609,444.754 L 0.449219,457.813 V 413.117 L 35.8672,398.652 C 98.2813,374.883 161.691,357.246 224.055,346.313" /><path
         id="path26"
         style="fill:#ffffff;fill-opacity:1;fill-rule:nonzero;stroke:none"
         d="m 434.145,373.594 6.82,-36.992 12.973,1.132 c 79.421,9.332 149.679,32.079 208.644,67.551 l 17.805,11.598 v 49.191 C 618.801,415.695 536.148,384.004 440.66,374.035 l -6.515,-0.441" /><path
         id="path28"
         style="fill:#ffffff;fill-opacity:1;fill-rule:nonzero;stroke:none"
         d="m 205.695,258.859 21.063,-3.339 2.43,10.933 6.156,32.188 -30.035,4.636 C 137.758,315.148 68.9375,333.754 0.445313,358.434 V 311.313 L 31.4492,300.848 C 89.7227,282.434 148.387,268.301 205.695,258.859" /><path
         id="path30"
         style="fill:#ffffff;fill-opacity:1;fill-rule:nonzero;stroke:none"
         d="m 449.617,290.348 9.36,-41.989 33.347,3.645 c 64.293,8.695 124.114,24.816 177.699,48.004 l 10.352,4.832 v 47.894 l -7.648,-4.054 C 607.91,316.988 532.961,297.359 449.617,290.348" /><path
         id="path32"
         style="fill:#ffffff;fill-opacity:1;fill-rule:nonzero;stroke:none"
         d="m 69.9844,184.992 30.9496,-6.347 16.339,38.812 -27.8238,5.606 c -16.6211,3.667 -33.375,7.644 -49.7734,11.867 L 0.445313,245.586 V 202.191 L 27.7227,194.902 c 13.4414,-3.339 27.7148,-6.734 42.2617,-9.91" /><path
         id="path34"
         style="fill:#ffffff;fill-opacity:1;fill-rule:nonzero;stroke:none"
         d="m 573.949,212.707 -2.953,-0.582 15.625,-36.633 24.488,5.715 c 10.848,2.762 22.082,5.824 33.207,9.168 l 36.055,11.922 v 41.797 l -1.656,-0.719 C 645.559,230.926 610.336,220.629 573.949,212.707" /><path
         id="path36"
         style="fill:#ffffff;fill-opacity:1;fill-rule:nonzero;stroke:none"
         d="m 66.3203,96.3516 15.5703,36.9924 -11.9531,2.375 C 46.5273,140.633 23.1719,145.961 0.453125,151.73 v -40.773 l 40.910175,-9.469 24.957,-5.1364" /><path
         id="path38"
         style="fill:#ffffff;fill-opacity:1;fill-rule:nonzero;stroke:none"
         d="m 607.168,127.301 16.285,-38.1799 21.672,4.6875 35.25,9.4454 v 42.926 c -23.133,-7.008 -47.066,-13.223 -71.441,-18.551 l -1.766,-0.328" /><path
         id="path40"
         style="fill:#ffffff;fill-opacity:1;fill-rule:nonzero;stroke:none"
         d="m 590.074,1093.22 -8.144,8.94 h -76.028 c 82.543,-77.49 143.883,-166.488 174.469,-252.48 v 115.226 l -15.101,26.559 c -21.227,34.725 -46.571,69.015 -75.196,101.755" /><path
         id="path42"
         style="fill:#ffffff;fill-opacity:1;fill-rule:nonzero;stroke:none"
         d="m 81.3086,654.141 c 0.2187,-0.196 0.1914,-0.196 0,0 m -1.2695,1.41 c -0.1953,0.191 -0.3594,0.328 -0.5,0.523 0.1406,-0.195 0.332,-0.359 0.5,-0.523 M 25.5156,613.145 C 96.5742,566.547 174.586,532.785 251.137,515.531 l 22.336,-4.359 1.129,6.789 0.527,-0.137 9.551,53.692 -15.793,6.047 c -24.871,10.46 -49.137,23.492 -72.379,38.757 -79.395,52.094 -136.7346,124.227 -149.5432,188.215 -6.1562,30.535 -1.7656,57.973 12.6446,79.313 19.875,29.371 57.6136,45.55 106.2816,45.55 60.375,0 132.066,-24.347 196.773,-66.781 79.395,-52.144 136.703,-124.277 149.539,-188.297 6.102,-30.476 1.742,-57.89 -12.723,-79.257 -17.308,-25.672 -47.703,-41.129 -87.925,-44.747 l -10.766,-0.523 1.051,-6.434 7.48,-40.468 7.672,0.191 c 54.688,4.113 101.563,21.258 135.242,49.555 l 5.547,5.297 17.035,13.996 c 11.899,10.961 22.637,23.41 31.692,36.828 42.097,62.387 48.117,145.535 17.004,234.289 -31.168,88.641 -97.008,176.843 -185.426,248.423 l -13.641,10.68 h -75.968 c 2.566,-1.65 5.05,-3.25 7.425,-4.83 118.153,-77.49 204.395,-181.64 236.664,-285.769 l 2.512,-9.387 4.223,-19.82 4.668,-37.16 -12.399,34.73 -11.425,24.43 -9.168,18.605 c -38.426,69.266 -102.387,135.102 -179.961,185.231 -91.403,58.97 -192.219,91.46 -283.981,91.46 -33.3202,0 -64.2655,-4.41 -91.9256,-13.11 L 0.449219,1081.2 v -40.74 c 27.992181,13.08 61.230481,19.65 99.242181,19.65 82.1286,0 178.2496,-31.75 263.6366,-87.067 120.692,-78.07 200.363,-181.535 203.703,-276.609 l 0.387,-14.219 c 0,0 -0.582,-7.231 -1.355,-16.231 -0.415,-4.75 -1.793,-18.828 -4.583,-34.257 0,0 -0.468,11.484 -1.988,23.628 l -4.14,26.586 c -12.34,79.45 -75.997,163.645 -165.414,222.282 -69.012,45.246 -145.481,70.226 -215.352,70.226 -67.801,0 -121.1055,-23.683 -150.0899,-66.613 C -8.30078,859.277 -5.70703,791.508 31.6445,721.941 l 5.9063,-10.078 6.5976,-10.047 c 0,0 3.1485,-5.328 8.3399,-12.285 7.5898,-10.133 18.1914,-23.988 24.4023,-30.613 0,0 -34.039,26.195 -42.3476,35.637 l -0.5508,0.468 C 22.0391,706.73 10.8008,718.766 0.449219,730.996 V 630.457 l 4.500001,-3.316 c 6.79298,-4.774 13.74998,-9.496 20.56638,-13.996" /><path
         id="path44"
         style="fill:#ffffff;fill-opacity:1;fill-rule:nonzero;stroke:none"
         d="m 319.785,296.656 3.727,32.465 h 45.769 l 3.836,-32.465 z m 13.887,124.446 h 25.535 l 3.973,-39.2 h -33.676 z m 11.289,85.218 6.129,-41.82 H 339.828 Z M 544.551,207.215 H 430.207 l -77.379,431.668 5.328,1.133 c 5.328,1.711 10.434,4.5 14.961,8.39 18.055,15.571 20.098,42.789 4.559,60.926 -15.571,18.055 -42.848,20.098 -60.899,4.527 -18.082,-15.539 -20.125,-42.816 -4.554,-60.871 5.824,-6.789 13.304,-11.316 21.308,-13.496 l 0.91,-0.14 -76.66,-432.137 H 144.102 L 80.7188,46.332 H 0 V 0 h 130.301 l 56.48,148.715 H 298.059 L 309.93,250.5 h 68.406 L 390.152,148.715 H 502.977 L 559.402,0 h 120.996 v 46.332 h -72.023 l -63.824,160.883" /><path
         id="path46"
         style="fill:#ffffff;fill-opacity:1;fill-rule:nonzero;stroke:none"
         d="M 1542.11,991.965 1421.13,539.547 h -126.94 l -62.97,232.008 c -5.75,20.992 -12.49,49.054 -20.22,84.187 l -6.3,27.84 h -2.98 l -6.63,-28.172 -6.3,-27.84 c -4.64,-18.781 -9.61,-37.562 -14.91,-56.347 L 1109.25,539.547 H 983.633 L 866.301,991.965 h 87.5 l 65.299,-248.25 c 3.97,-15.91 8.94,-37.895 14.91,-65.957 l 6.96,-33.145 6.63,-33.144 h 2.98 c 3.54,14.586 6.19,25.633 7.96,33.144 l 7.95,32.813 c 4.2,17.234 10.06,39.222 17.57,65.957 l 69.6,248.582 h 100.76 l 67.94,-248.582 c 5.75,-21.211 11.38,-43.195 16.91,-65.957 l 7.62,-32.813 7.95,-33.144 h 2.66 l 7.29,33.144 6.96,33.145 c 5.74,26.734 10.94,48.832 15.58,66.289 l 66.95,247.918 h 87.83" /><path
         id="path48"
         style="fill:#ffffff;fill-opacity:1;fill-rule:nonzero;stroke:none"
         d="M 1668.06,991.965 V 539.547 h -85.85 v 452.418 h 85.85" /><path
         id="path50"
         style="fill:#ffffff;fill-opacity:1;fill-rule:nonzero;stroke:none"
         d="m 1834.11,764.266 h 123.29 c 29.39,0 48.89,5.246 58.5,15.742 9.62,10.496 14.42,31.543 14.42,63.14 0,32.258 -4.14,53.086 -12.43,62.477 -8.28,9.391 -26.46,14.086 -54.52,14.086 h -129.26 z m -85.84,-224.719 v 452.418 h 223.05 c 55.47,0 93.69,-9.613 114.68,-28.836 20.99,-19.223 31.49,-54.024 31.49,-104.402 0,-45.743 -5.25,-77.008 -15.74,-93.801 -10.5,-16.793 -31.99,-28.391 -64.47,-34.801 v -2.98 c 50.16,-3.094 75.24,-32.372 75.24,-87.832 v -99.766 h -85.84 v 82.527 c 0,46.625 -22.98,69.938 -68.94,69.938 H 1834.11 V 539.547 h -85.84" /><path
         id="path52"
         style="fill:#ffffff;fill-opacity:1;fill-rule:nonzero;stroke:none"
         d="M 2262.66,919.711 V 803.043 h 212.12 V 739.738 H 2262.66 V 611.801 h 225.71 v -72.254 h -311.55 v 452.418 h 309.56 v -72.254 h -223.72" /><path
         id="path54"
         style="fill:#ffffff;fill-opacity:1;fill-rule:nonzero;stroke:none"
         d="M 2638.18,991.965 V 616.441 h 212.13 v -76.894 h -297.97 v 452.418 h 85.84" /><path
         id="path56"
         style="fill:#ffffff;fill-opacity:1;fill-rule:nonzero;stroke:none"
         d="M 2970.62,919.711 V 803.043 h 212.12 V 739.738 H 2970.62 V 611.801 h 225.71 v -72.254 h -311.55 v 452.418 h 309.56 v -72.254 h -223.72" /><path
         id="path58"
         style="fill:#ffffff;fill-opacity:1;fill-rule:nonzero;stroke:none"
         d="m 3596.05,860.051 h -83.86 c -0.44,4.199 -0.66,7.293 -0.66,9.281 -1.99,25.41 -7.62,41.375 -16.9,47.891 -9.28,6.519 -31.16,9.781 -65.63,9.781 -40.66,0 -67.23,-3.758 -79.71,-11.27 -12.48,-7.515 -18.73,-23.312 -18.73,-47.398 0,-28.504 5.09,-45.629 15.25,-51.371 10.16,-5.746 43.75,-10.164 100.76,-13.258 67.39,-3.758 110.98,-13.367 130.75,-28.836 19.78,-15.469 29.67,-47.617 29.67,-96.449 0,-60.102 -11.61,-98.938 -34.81,-116.5 -23.2,-17.57 -74.35,-26.352 -153.45,-26.352 -71.15,0 -118.38,8.618 -141.69,25.852 -23.32,17.234 -34.97,52.148 -34.97,104.734 l -0.33,16.574 h 83.52 l 0.33,-9.613 c 0,-31.597 5.53,-50.929 16.57,-58 11.05,-7.07 41.21,-10.605 90.49,-10.605 38.44,0 62.97,4.086 73.58,12.261 10.6,8.176 15.91,27.067 15.91,56.676 0,21.875 -4.04,36.403 -12.1,43.586 -8.07,7.18 -25.47,11.543 -52.2,13.09 l -47.4,2.984 c -71.59,4.2 -117.33,14.141 -137.22,29.829 -19.88,15.691 -29.83,49.386 -29.83,101.089 0,52.809 11.99,87.996 35.97,105.567 23.97,17.562 71.86,26.347 143.68,26.347 68.05,0 113.9,-8.066 137.54,-24.195 23.65,-16.129 35.47,-47.617 35.47,-94.461 v -17.234" /><path
         id="path60"
         style="fill:#ffffff;fill-opacity:1;fill-rule:nonzero;stroke:none"
         d="m 4002.39,860.051 h -83.85 c -0.44,4.199 -0.66,7.293 -0.66,9.281 -1.99,25.41 -7.63,41.375 -16.91,47.891 -9.28,6.519 -31.15,9.781 -65.62,9.781 -40.66,0 -67.23,-3.758 -79.71,-11.27 -12.49,-7.515 -18.73,-23.312 -18.73,-47.398 0,-28.504 5.08,-45.629 15.25,-51.371 10.16,-5.746 43.75,-10.164 100.75,-13.258 67.4,-3.758 110.98,-13.367 130.76,-28.836 19.77,-15.469 29.66,-47.617 29.66,-96.449 0,-60.102 -11.6,-98.938 -34.8,-116.5 -23.2,-17.57 -74.35,-26.352 -153.46,-26.352 -71.15,0 -118.38,8.618 -141.69,25.852 -23.31,17.234 -34.96,52.148 -34.96,104.734 l -0.34,16.574 h 83.53 l 0.33,-9.613 c 0,-31.597 5.52,-50.929 16.57,-58 11.05,-7.07 41.21,-10.605 90.48,-10.605 38.45,0 62.98,4.086 73.58,12.261 10.61,8.176 15.91,27.067 15.91,56.676 0,21.875 -4.03,36.403 -12.09,43.586 -8.07,7.18 -25.47,11.543 -52.21,13.09 l -47.39,2.984 c -71.59,4.2 -117.33,14.141 -137.22,29.829 -19.89,15.691 -29.83,49.386 -29.83,101.089 0,52.809 11.99,87.996 35.96,105.567 23.98,17.562 71.87,26.347 143.68,26.347 68.06,0 113.91,-8.066 137.55,-24.195 23.64,-16.129 35.46,-47.617 35.46,-94.461 v -17.234" /><path
         id="path62"
         style="fill:#ffffff;fill-opacity:1;fill-rule:nonzero;stroke:none"
         d="m 962.75,241.707 c -7.199,0 -13.137,-0.848 -17.852,-2.512 -4.683,-1.668 -8.421,-4.273 -11.187,-7.855 -2.766,-3.617 -4.715,-8.297 -5.813,-14.113 -1.132,-5.813 -1.668,-13.008 -1.668,-21.555 v -34.035 c 0,-9.114 0.598,-16.594 1.887,-22.407 1.227,-5.781 3.332,-10.527 6.223,-14.078 2.859,-3.613 6.629,-6.097 11.219,-7.48 4.554,-1.383 10.246,-2.106 17.191,-2.106 11.059,0 19.262,2.231 24.668,6.664 5.402,4.43 8.105,13.543 8.105,27.372 h 55.627 c 0,-15.493 -2.05,-28.348 -6.04,-38.559 -4.05,-10.242 -9.8,-18.4141 -17.44,-24.5117 -7.6,-6.0625 -16.87,-10.3711 -27.779,-12.8204 -10.934,-2.5195 -23.348,-3.7421 -37.141,-3.7421 -15.777,0 -29.48,1.5429 -41.074,4.5625 -11.598,3.039 -21.211,8.289 -28.848,15.7695 -7.605,7.4805 -13.293,17.3472 -17.16,29.6372 -3.895,12.347 -5.844,27.621 -5.844,45.847 v 25.703 c 0,18.543 1.949,34.004 5.844,46.481 3.867,12.441 9.617,22.281 17.41,29.445 7.731,7.195 17.442,12.285 29.035,15.367 11.598,3.016 25.172,4.524 40.637,4.524 14.109,0 26.645,-1.223 37.55,-3.707 10.94,-2.481 20.21,-6.723 27.81,-12.664 7.54,-5.942 13.33,-14.047 17.19,-24.262 3.87,-10.242 5.85,-23.223 5.85,-38.965 h -55.627 c 0,7.164 -0.691,12.977 -2.074,17.406 -1.351,4.403 -3.457,7.891 -6.222,10.371 -2.762,2.485 -6.254,4.149 -10.368,4.965 -4.179,0.821 -8.832,1.258 -14.109,1.258" /><path
         id="path64"
         style="fill:#ffffff;fill-opacity:1;fill-rule:nonzero;stroke:none"
         d="m 1177.63,161.641 c 0,-18.258 2.77,-30.485 8.3,-36.707 5.5,-6.223 14.89,-9.364 28.22,-9.364 6.63,0 12.22,0.723 16.75,2.106 4.62,1.383 8.29,3.801 11.25,7.258 2.89,3.457 4.96,8.14 6.19,14.082 1.22,5.968 1.91,13.511 1.91,22.625 v 34.031 c 0,9.113 -0.69,16.625 -1.91,22.594 -1.23,5.941 -3.3,10.656 -6.19,14.113 -2.96,3.426 -6.63,5.875 -11.25,7.226 -4.53,1.383 -10.12,2.106 -16.75,2.106 -13.33,0 -22.72,-3.141 -28.22,-9.332 -5.53,-6.223 -8.3,-18.481 -8.3,-36.707 z m 129,4.148 c 0,-18.793 -1.95,-34.379 -5.81,-46.668 -3.87,-12.32 -9.71,-22.0624 -17.44,-29.2616 -7.73,-7.1875 -17.41,-12.2774 -29.04,-15.3281 -11.6,-3.0196 -25.02,-4.5625 -40.19,-4.5625 -15.53,0 -29.04,1.5429 -40.7,4.5625 -11.6,3.0507 -21.31,8.1406 -29.04,15.3281 -7.73,7.1992 -13.54,16.9416 -17.41,29.2616 -3.86,12.289 -5.78,27.875 -5.78,46.668 v 25.703 c 0,18.543 1.92,33.942 5.78,46.289 3.87,12.258 9.75,22.094 17.67,29.414 7.85,7.356 17.56,12.508 29.03,15.559 11.47,3.047 24.92,4.555 40.45,4.555 15.17,0 28.53,-1.508 40.03,-4.555 11.47,-3.051 21.03,-8.203 28.79,-15.559 7.79,-7.32 13.6,-17.156 17.66,-29.414 3.99,-12.347 6,-27.746 6,-46.289 v -25.703" /><path
         id="path66"
         style="fill:#ffffff;fill-opacity:1;fill-rule:nonzero;stroke:none"
         d="m 1603.65,211.816 c 0,12.192 -1.73,20.207 -5.21,24.071 -3.43,3.867 -9.46,5.816 -18.04,5.816 -3.87,0 -8.83,-1.039 -14.93,-3.113 -6.06,-2.074 -11.34,-4.617 -15.77,-7.699 V 74.9609 h -56.41 V 211.816 c 0,12.192 -1.7,20.207 -5.16,24.071 -3.49,3.867 -9.52,5.816 -18.03,5.816 -3.93,0 -8.9,-1.039 -14.99,-3.113 -6.07,-2.074 -11.35,-4.617 -15.78,-7.699 V 74.9609 h -56.38 V 282.336 h 39.82 L 1431.91,267 c 9.15,6.379 18.1,11.344 26.97,14.926 8.83,3.613 18.95,5.375 30.23,5.375 12.79,0 22.84,-1.414 30.32,-4.336 7.51,-2.895 14.36,-8.078 20.74,-15.527 8.3,5.25 17.44,9.867 27.41,13.859 9.93,4.023 20.86,6.004 32.77,6.004 11.6,0 21.28,-1.227 29.01,-3.707 7.73,-2.485 13.89,-6.727 18.48,-12.668 4.55,-5.938 7.73,-13.762 9.52,-23.41 1.79,-9.68 2.7,-21.715 2.7,-36.11 V 74.9609 h -56.41 V 211.816" /><path
         id="path68"
         style="fill:#ffffff;fill-opacity:1;fill-rule:nonzero;stroke:none"
         d="m 1961.24,211.816 c 0,12.192 -1.79,20.207 -5.22,24.071 -3.43,3.867 -9.46,5.816 -18.04,5.816 -3.86,0 -8.83,-1.039 -14.93,-3.113 -6.06,-2.074 -11.34,-4.617 -15.77,-7.699 V 74.9609 h -56.41 V 211.816 c 0,12.192 -1.7,20.207 -5.22,24.071 -3.42,3.867 -9.45,5.816 -18.03,5.816 -3.87,0 -8.83,-1.039 -14.93,-3.113 -6.07,-2.074 -11.34,-4.617 -15.78,-7.699 V 74.9609 h -56.37 V 282.336 h 39.81 L 1789.5,267 c 9.08,6.379 18.1,11.344 26.96,14.926 8.83,3.613 18.89,5.375 30.23,5.375 12.73,0 22.85,-1.414 30.33,-4.336 7.44,-2.895 14.36,-8.078 20.74,-15.527 8.29,5.25 17.38,9.867 27.4,13.859 9.93,4.023 20.87,6.004 32.71,6.004 11.66,0 21.28,-1.227 29.07,-3.707 7.73,-2.485 13.89,-6.727 18.42,-12.668 4.62,-5.938 7.73,-13.762 9.58,-23.41 1.79,-9.68 2.7,-21.715 2.7,-36.11 V 74.9609 h -56.4 V 211.816" /><path
         id="path70"
         style="fill:#ffffff;fill-opacity:1;fill-rule:nonzero;stroke:none"
         d="m 2235.41,74.9414 -9.59,17.8203 c -11.84,-8.8633 -22.75,-14.8633 -32.71,-18.0429 -9.99,-3.1368 -21.06,-4.7383 -33.18,-4.7383 -11.07,0 -20.53,1.2187 -28.26,3.7383 -7.73,2.4531 -14.11,6.5703 -19.07,12.2226 -4.97,5.6602 -8.61,13.1992 -11,22.5936 -2.33,9.399 -3.49,21.028 -3.49,34.852 v 138.965 h 56.41 V 145.023 c 0,-11.597 1.82,-19.421 5.59,-23.445 3.74,-3.988 10.59,-6 20.56,-6 6.31,0 13.13,1.539 20.3,4.586 7.19,3.016 13.57,7.324 19.1,12.856 v 149.332 h 56.41 V 74.9414 h -41.07" /><path
         id="path72"
         style="fill:#ffffff;fill-opacity:1;fill-rule:nonzero;stroke:none"
         d="m 2400.08,282.34 9.52,-17.82 c 11.91,8.863 22.82,14.863 32.78,18.039 9.93,3.14 20.99,4.746 33.19,4.746 11.06,0 20.52,-1.227 28.44,-3.711 7.85,-2.481 14.36,-6.567 19.45,-12.254 5.09,-5.625 8.83,-13.199 11.22,-22.567 2.32,-9.425 3.52,-21.05 3.52,-34.878 V 74.9297 h -56.41 V 212.262 c 0,11.593 -1.86,19.418 -5.59,23.441 -3.75,3.992 -10.63,6.004 -20.56,6.004 -6.41,0 -13.26,-1.543 -20.77,-4.559 -7.42,-3.046 -13.92,-7.351 -19.45,-12.882 V 74.9297 h -56.47 V 282.34 h 41.13" /><path
         id="path74"
         style="fill:#ffffff;fill-opacity:1;fill-rule:nonzero;stroke:none"
         d="m 2618.64,282.348 h 56.47 V 74.9414 h -56.47 z m 0,70.519 h 56.47 v -52.262 h -56.47 v 52.262" /><path
         id="path76"
         style="fill:#ffffff;fill-opacity:1;fill-rule:nonzero;stroke:none"
         d="m 2844.33,241.707 c -7.19,0 -13.13,-0.848 -17.85,-2.512 -4.68,-1.668 -8.42,-4.273 -11.18,-7.855 -2.77,-3.617 -4.72,-8.297 -5.82,-14.113 -1.13,-5.813 -1.66,-13.008 -1.66,-21.555 v -34.035 c 0,-9.114 0.59,-16.594 1.88,-22.407 1.23,-5.781 3.33,-10.527 6.22,-14.078 2.86,-3.613 6.63,-6.097 11.16,-7.48 4.62,-1.383 10.31,-2.106 17.25,-2.106 11.06,0 19.27,2.231 24.67,6.664 5.41,4.43 8.11,13.543 8.11,27.372 h 55.62 c 0,-15.493 -2.04,-28.348 -6.03,-38.559 -4.06,-10.242 -9.81,-18.4141 -17.44,-24.5117 -7.61,-6.0625 -16.88,-10.3711 -27.78,-12.8204 -10.94,-2.5195 -23.35,-3.7421 -37.15,-3.7421 -15.77,0 -29.47,1.5429 -41.07,4.5625 -11.6,3.039 -21.21,8.289 -28.85,15.7695 -7.6,7.4805 -13.29,17.3472 -17.16,29.6372 -3.89,12.347 -5.84,27.621 -5.84,45.847 v 25.703 c 0,18.543 1.95,34.004 5.84,46.481 3.87,12.441 9.62,22.281 17.41,29.445 7.73,7.195 17.38,12.285 29.04,15.367 11.6,3.016 25.17,4.524 40.63,4.524 14.11,0 26.65,-1.223 37.56,-3.707 10.93,-2.481 20.14,-6.723 27.74,-12.664 7.61,-5.942 13.39,-14.047 17.26,-24.262 3.86,-10.242 5.84,-23.223 5.84,-38.965 h -55.62 c 0,7.164 -0.69,12.977 -2.08,17.406 -1.41,4.403 -3.45,7.891 -6.22,10.371 -2.76,2.485 -6.25,4.149 -10.37,4.965 -4.18,0.821 -8.83,1.258 -14.11,1.258" /><path
         id="path78"
         style="fill:#ffffff;fill-opacity:1;fill-rule:nonzero;stroke:none"
         d="m 3080.33,115.578 c 9.14,0 17.57,1.477 25.36,4.367 7.73,2.891 14.77,7.102 21.12,12.664 v 32.336 l -47.27,-5.375 c -14.92,-1.632 -22.4,-9.269 -22.4,-22.812 0,-7.195 2.13,-12.539 6.44,-15.965 4.24,-3.457 9.87,-5.215 16.75,-5.215 m -79.6,15.774 c 0,18.257 5.09,32.652 15.33,43.148 10.19,10.496 27.63,16.559 52.23,18.258 l 58.52,4.148 v 18.227 c 0,9.711 -2.3,16.527 -6.82,20.551 -4.62,3.992 -12.82,6.035 -24.67,6.035 -12.23,0 -20.52,-2.168 -24.92,-6.446 -4.43,-4.304 -6.63,-11.121 -6.63,-20.55 h -55.63 c 0,23.789 6.7,41.828 19.96,54.144 13.26,12.321 35.54,18.449 66.78,18.449 32.08,0 54.8,-5.972 68.25,-17.82 13.39,-11.879 20.05,-30.012 20.05,-54.363 V 74.9414 h -41.04 l -9.52,17.8203 c -18.79,-15.1797 -39.94,-22.7812 -63.45,-22.7812 -23.28,0 -40.47,5.4687 -51.63,16.3711 -11.22,10.9375 -16.81,25.9254 -16.81,45.0004" /><path
         id="path80"
         style="fill:#ffffff;fill-opacity:1;fill-rule:nonzero;stroke:none"
         d="m 3370.7,74.9414 c -4.71,-1.3828 -10.43,-2.543 -17.19,-3.5195 -6.81,-0.9727 -13.92,-1.4414 -21.36,-1.4414 -9.43,0 -17.66,0.8789 -24.74,2.6992 -6.97,1.7617 -12.88,4.9023 -17.59,9.332 -4.69,4.3985 -8.24,10.3789 -10.56,17.8203 -2.33,7.449 -3.55,16.719 -3.55,27.781 v 109.11 h -26.53 v 40.222 l 26.53,5.407 v 46.882 l 56.44,11.192 v -58.074 h 38.55 v -45.629 h -38.55 V 133.02 c 0,-6.633 1.22,-11.192 3.7,-13.704 2.52,-2.484 6.7,-3.738 12.45,-3.738 3.86,0 7.92,0.25 12.03,0.625 4.18,0.41 7.61,0.914 10.37,1.445 V 74.9414" /><path
         id="path82"
         style="fill:#ffffff;fill-opacity:1;fill-rule:nonzero;stroke:none"
         d="m 3442.89,282.348 h 56.41 V 74.9414 h -56.41 z m 0,70.519 h 56.41 v -52.262 h -56.41 v 52.262" /><path
         id="path84"
         style="fill:#ffffff;fill-opacity:1;fill-rule:nonzero;stroke:none"
         d="m 3632.05,161.641 c 0,-18.258 2.77,-30.485 8.3,-36.707 5.5,-6.223 14.89,-9.364 28.15,-9.364 6.7,0 12.29,0.723 16.82,2.106 4.62,1.383 8.29,3.801 11.25,7.258 2.89,3.457 4.96,8.14 6.19,14.082 1.22,5.968 1.85,13.511 1.85,22.625 v 34.031 c 0,9.113 -0.63,16.625 -1.85,22.594 -1.23,5.941 -3.3,10.656 -6.19,14.113 -2.96,3.426 -6.63,5.875 -11.25,7.226 -4.53,1.383 -10.12,2.106 -16.82,2.106 -13.26,0 -22.65,-3.141 -28.15,-9.332 -5.53,-6.223 -8.3,-18.481 -8.3,-36.707 z m 129,4.148 c 0,-18.793 -1.95,-34.379 -5.81,-46.668 -3.87,-12.32 -9.71,-22.0624 -17.44,-29.2616 -7.73,-7.1875 -17.41,-12.2774 -29.04,-15.3281 -11.59,-3.0196 -25.01,-4.5625 -40.26,-4.5625 -15.46,0 -29.03,1.5429 -40.63,4.5625 -11.59,3.0507 -21.3,8.1406 -29.03,15.3281 -7.73,7.1992 -13.55,16.9416 -17.41,29.2616 -3.87,12.289 -5.79,27.875 -5.79,46.668 v 25.703 c 0,18.543 1.92,33.942 5.79,46.289 3.86,12.258 9.74,22.094 17.59,29.414 7.92,7.356 17.63,12.508 29.1,15.559 11.41,3.047 24.92,4.555 40.38,4.555 15.25,0 28.6,-1.508 40.1,-4.555 11.47,-3.051 21.03,-8.203 28.79,-15.559 7.73,-7.32 13.61,-17.156 17.66,-29.414 3.99,-12.347 6,-27.746 6,-46.289 v -25.703" /><path
         id="path86"
         style="fill:#ffffff;fill-opacity:1;fill-rule:nonzero;stroke:none"
         d="m 3878.42,282.34 9.52,-17.82 c 11.91,8.863 22.82,14.863 32.78,18.039 9.99,3.14 21.05,4.746 33.18,4.746 11.06,0 20.59,-1.227 28.44,-3.711 7.86,-2.481 14.36,-6.567 19.52,-12.254 5.09,-5.625 8.83,-13.199 11.15,-22.567 2.33,-9.425 3.55,-21.05 3.55,-34.878 V 74.9297 h -56.44 V 212.262 c 0,11.593 -1.85,19.418 -5.59,23.441 -3.74,3.992 -10.56,6.004 -20.49,6.004 -6.41,0 -13.32,-1.543 -20.77,-4.559 -7.48,-3.046 -13.99,-7.351 -19.52,-12.882 V 74.9297 h -56.4 V 282.34 h 41.07" /></g></g></svg>